<svg width="68" height="24" viewBox="0 0 68 24" fill="none" xmlns="http://www.w3.org/2000/svg">
<path d="M12.4967 4.264L5.21665 4.656L3.70465 8.436L1.63265 8.156L2.27665 2.64H16.4727L17.1447 4.124L7.00865 19.86L5.07665 21.792L13.7007 21.232L15.2687 16.892L17.3967 17.312L16.7527 23.5H1.35265L0.484652 22.016L10.8447 6.196L12.4967 4.264ZM26.5323 23.808C24.0683 23.808 22.2296 23.0893 21.0163 21.652C19.8216 20.196 19.2243 18.2173 19.2243 15.716C19.2243 14.036 19.5323 12.58 20.1483 11.348C20.783 10.116 21.6696 9.17333 22.8083 8.52C23.947 7.86667 25.263 7.54 26.7563 7.54C28.623 7.54 30.0603 8.03467 31.0683 9.024C32.0763 9.99467 32.599 11.3853 32.6363 13.196C32.6363 14.428 32.5616 15.3427 32.4123 15.94H23.3123C23.387 17.6387 23.7883 18.964 24.5163 19.916C25.2443 20.8493 26.2803 21.316 27.6243 21.316C28.3523 21.316 29.099 21.1947 29.8643 20.952C30.6483 20.7093 31.2643 20.42 31.7123 20.084L32.4123 21.624C31.9083 22.1653 31.087 22.6693 29.9483 23.136C28.8283 23.584 27.6896 23.808 26.5323 23.808ZM28.7163 14.26C28.7536 13.7373 28.7723 13.336 28.7723 13.056C28.7723 10.5733 27.9416 9.332 26.2803 9.332C25.3656 9.332 24.6563 9.696 24.1523 10.424C23.6483 11.152 23.3683 12.4307 23.3123 14.26H28.7163ZM33.6108 1.156L38.7348 0.539999H38.7908L39.5748 1.072V9.332C40.0788 8.828 40.6948 8.408 41.4228 8.072C42.1695 7.71733 42.9722 7.54 43.8308 7.54C45.6228 7.54 47.0788 8.17467 48.1988 9.444C49.3375 10.6947 49.9068 12.6173 49.9068 15.212C49.9068 16.8173 49.5708 18.2733 48.8988 19.58C48.2268 20.8867 47.2562 21.9227 45.9868 22.688C44.7362 23.4347 43.2802 23.808 41.6188 23.808C40.1442 23.808 38.8655 23.6867 37.7828 23.444C36.7002 23.1827 36.0095 22.9493 35.7108 22.744V2.948L33.6108 2.612V1.156ZM42.3468 10.004C41.7868 10.004 41.2548 10.1347 40.7508 10.396C40.2655 10.6387 39.8735 10.9187 39.5748 11.236V21.456C39.6868 21.6613 39.9482 21.8293 40.3588 21.96C40.7695 22.0907 41.2362 22.156 41.7588 22.156C42.9535 22.156 43.9055 21.6053 44.6148 20.504C45.3428 19.384 45.7068 17.732 45.7068 15.548C45.7068 13.6627 45.3988 12.272 44.7828 11.376C44.1668 10.4613 43.3548 10.004 42.3468 10.004ZM50.9194 1.156L56.0434 0.539999H56.0994L56.8834 1.072V9.332C57.3874 8.828 58.0034 8.408 58.7314 8.072C59.4781 7.71733 60.2808 7.54 61.1394 7.54C62.9314 7.54 64.3874 8.17467 65.5074 9.444C66.6461 10.6947 67.2154 12.6173 67.2154 15.212C67.2154 16.8173 66.8794 18.2733 66.2074 19.58C65.5354 20.8867 64.5648 21.9227 63.2954 22.688C62.0448 23.4347 60.5888 23.808 58.9274 23.808C57.4528 23.808 56.1741 23.6867 55.0914 23.444C54.0088 23.1827 53.3181 22.9493 53.0194 22.744V2.948L50.9194 2.612V1.156ZM59.6554 10.004C59.0954 10.004 58.5634 10.1347 58.0594 10.396C57.5741 10.6387 57.1821 10.9187 56.8834 11.236V21.456C56.9954 21.6613 57.2568 21.8293 57.6674 21.96C58.0781 22.0907 58.5448 22.156 59.0674 22.156C60.2621 22.156 61.2141 21.6053 61.9234 20.504C62.6514 19.384 63.0154 17.732 63.0154 15.548C63.0154 13.6627 62.7074 12.272 62.0914 11.376C61.4754 10.4613 60.6634 10.004 59.6554 10.004Z" fill="#FF5678"/>
</svg>
